<?xml version="1.0" encoding="UTF-8" standalone="no"?>
<svg
   xmlns:dc="http://purl.org/dc/elements/1.1/"
   xmlns:cc="http://creativecommons.org/ns#"
   xmlns:rdf="http://www.w3.org/1999/02/22-rdf-syntax-ns#"
   xmlns:svg="http://www.w3.org/2000/svg"
   xmlns="http://www.w3.org/2000/svg"
   xmlns:sodipodi="http://sodipodi.sourceforge.net/DTD/sodipodi-0.dtd"
   xmlns:inkscape="http://www.inkscape.org/namespaces/inkscape"
   sodipodi:docname="0-9-table-numbers.svg"
   inkscape:version="1.0 (4035a4fb49, 2020-05-01)"
   id="svg8"
   version="1.1"
   viewBox="0 0 304.8 406.40001"
   height="16in"
   width="12in">
  <defs
     id="defs2" />
  <sodipodi:namedview
     inkscape:window-maximized="0"
     inkscape:window-y="0"
     inkscape:window-x="128"
     inkscape:window-height="1030"
     inkscape:window-width="1424"
     units="in"
     showgrid="false"
     inkscape:document-rotation="0"
     inkscape:current-layer="layer1"
     inkscape:document-units="mm"
     inkscape:cy="560"
     inkscape:cx="400"
     inkscape:zoom="0.35"
     inkscape:pageshadow="2"
     inkscape:pageopacity="0.0"
     borderopacity="1.0"
     bordercolor="#666666"
     pagecolor="#ffffff"
     id="base" />
  <metadata
     id="metadata5">
    <rdf:RDF>
      <cc:Work
         rdf:about="">
        <dc:format>image/svg+xml</dc:format>
        <dc:type
           rdf:resource="http://purl.org/dc/dcmitype/StillImage" />
        <dc:title></dc:title>
      </cc:Work>
    </rdf:RDF>
  </metadata>
  <g
     id="layer1"
     inkscape:groupmode="layer"
     inkscape:label="Layer 1">
    <path
       sodipodi:nodetypes="scscssssccsssccccccccccccccccscscccscccccccscccsccscccscscsscccscccsscsccscccssccsccccsssccccsccccccsccccccccsscccccssccccssscccscccccsccsscccssccccsssccsscc"
       d="m 117.54411,9.5279277 c -11.47098,0 -21.19856,3.6631623 -29.183275,10.9898123 -7.984746,7.326712 -11.978555,12.956933 -11.978555,23.000266 0,5.762543 1.237919,8.96403 3.712072,12.997836 2.53038,4.033819 5.904387,6.05129 10.121654,6.05129 4.442207,0 8.096226,-1.729044 10.963964,-5.186574 2.86776,-3.457519 4.30291,-6.412254 4.30291,-12.257143 0,-4.856996 -0.39444,-6.205519 -1.18166,-10.156993 -0.78724,-3.95147 -1.60254,-7.77969 -2.44601,-11.484186 1.68691,-0.987934 3.28937,-1.646701 4.80761,-1.975756 1.57445,-0.411775 3.23328,-0.618393 4.97643,-0.618393 5.56681,0 10.03786,2.387659 13.4117,7.162329 3.37384,4.774661 5.06082,12.389427 5.06082,22.84435 0,4.692335 -0.45079,8.932413 -1.35047,12.719249 -0.84347,3.786841 -2.27689,7.284901 -4.30118,10.495441 -2.02429,3.45755 -4.80836,6.7922 -8.35089,10.00281 -3.54247,3.12827 -7.92733,6.70968 -13.15676,10.74349 -4.892038,3.78679 -9.729357,8.150244 -14.508952,13.089604 -4.723353,4.85701 -9.079995,10.24914 -13.072375,16.17638 v 12.40574 H 166.80192 V 112.63755 H 96.37237 v -2.71817 c 3.205093,-3.21055 6.86087,-5.96829 10.96569,-8.27336 4.16106,-2.305024 9.02483,-4.485884 14.59164,-6.543944 5.22944,-1.89341 10.12139,-3.8692 14.67605,-5.92726 4.61091,-2.05804 8.80025,-4.69247 12.56767,-7.90302 4.21727,-3.53987 7.39405,-7.65652 9.53082,-12.34891 2.193,-4.69233 3.29006,-9.507436 3.29006,-17.163403 0,-14.818 -4.10481,-25.560665 -12.31445,-32.228759 C 141.52641,12.862633 130.81452,9.5279277 117.54411,9.5279277 Z m 20.48964,25.7674993 c 0.27286,-0.013 0.55268,0.0226 0.8492,0.10163 0.66742,0.179 1.45426,0.656288 1.9706,1.195445 0.4426,0.462227 0.91767,1.21035 1.29191,2.036043 0.40767,0.899533 0.98071,2.816905 1.24884,4.178888 0.0489,0.248033 0.076,0.408739 0.11541,0.618392 5.84505,7.813222 6.25812,15.353673 -1.09554,23.343891 h -1.66398 c 7.2751,-7.222188 7.99866,-14.681417 2.117,-22.286251 -0.0875,-0.024 -0.0846,-0.02109 -0.19463,-0.05167 -2.39157,-0.659267 -4.27578,-1.457647 -5.4863,-2.327153 -1.21372,-0.87186 -1.95186,-2.035704 -2.07567,-3.271107 -0.0736,-0.733592 0.0501,-1.270815 0.43409,-1.899963 0.22363,-0.366268 0.78788,-0.941517 1.15065,-1.174775 0.44887,-0.288765 0.88359,-0.44285 1.33842,-0.463363 z m 1.37459,13.2274 c 0.36119,-0.0361 0.72671,0.01148 1.11448,0.14297 0.65455,0.221634 1.40906,0.749925 1.88963,1.321189 0.41193,0.489776 0.83723,1.267182 1.15755,2.11528 0.34891,0.923899 0.79864,2.873137 0.9784,4.249513 0.13473,1.031965 0.21278,1.78385 0.19466,1.843119 -0.024,0.07764 -0.0306,0.07399 -1.02148,-0.268716 -2.34415,-0.811885 -4.17061,-1.731153 -5.32265,-2.676829 -1.15506,-0.948172 -1.81802,-2.154322 -1.86206,-3.395131 -0.0273,-0.736801 0.13271,-1.264124 0.55637,-1.867236 0.24641,-0.350808 0.84587,-0.889209 1.223,-1.098981 0.37267,-0.206833 0.73138,-0.329152 1.0921,-0.365178 z m 14.59509,0 c 0.3612,0.0361 0.71887,0.157819 1.09209,0.365178 0.37705,0.209399 0.97641,0.747866 1.22301,1.098981 0.42365,0.603086 0.58202,1.130432 0.55465,1.867236 -0.0441,1.240809 -0.70356,2.446962 -1.85862,3.395131 -1.15205,0.945679 -2.98196,1.864942 -5.3261,2.676829 -0.99093,0.342704 -0.99751,0.346363 -1.02146,0.268716 -0.018,-0.05927 0.0633,-0.811154 0.19808,-1.843119 0.17977,-1.376376 0.62778,-3.325614 0.97668,-4.249513 0.32031,-0.848098 0.74562,-1.625542 1.15755,-2.11528 0.48057,-0.571299 1.23681,-1.099563 1.89136,-1.321189 0.38779,-0.131366 0.75157,-0.179073 1.11276,-0.14297 z m -48.63768,66.591733 c 0.86014,0.0173 1.73298,0.40014 2.49253,1.10071 0.86574,0.79859 1.78409,2.12951 2.67509,3.87572 0.37607,0.73695 0.37863,0.74164 0.32039,0.76997 -0.0444,0.0221 -0.64178,0.0401 -1.46415,0.0465 -1.09688,0.009 -2.67016,-0.12897 -3.43131,-0.30144 -0.69868,-0.1582 -1.35461,-0.4062 -1.78283,-0.67524 -0.49954,-0.31385 -0.99367,-0.84688 -1.23851,-1.33497 -0.29008,-0.57839 -0.31208,-1.12069 -0.0689,-1.75009 0.12278,-0.31794 0.48073,-0.84722 0.72864,-1.07832 0.42583,-0.3973 0.82089,-0.57744 1.40042,-0.63734 0.12199,-0.0126 0.24575,-0.018 0.36863,-0.0155 z m 35.20357,0 c 0.12288,-0.003 0.24492,0.003 0.36692,0.0155 0.57953,0.0595 0.97631,0.23977 1.40213,0.63735 0.24792,0.23108 0.60413,0.76041 0.72693,1.0783 0.24316,0.6295 0.22117,1.17174 -0.0689,1.7501 -0.24484,0.48812 -0.73898,1.02288 -1.2385,1.33671 -0.42822,0.26901 -1.08417,0.51702 -1.78285,0.67523 -0.76113,0.17245 -2.33444,0.31084 -3.4313,0.30145 -0.82237,-0.006 -1.41974,-0.0262 -1.46415,-0.0482 -0.0582,-0.0283 -0.0557,-0.0332 0.32038,-0.76998 0.89102,-1.7462 1.81111,-3.07716 2.67683,-3.8757 0.75956,-0.70061 1.63239,-1.08344 2.49252,-1.10072 z m -17.76628,3.12125 c 1.54026,1.8592 2.67292,3.72741 5.48112,6.41819 -3.17733,2.85963 -4.15713,4.54705 -5.48112,6.4182 -1.64582,-2.44136 -3.44781,-4.62269 -5.48114,-6.4182 2.06358,-1.84377 3.93393,-3.92895 5.48114,-6.41819 z m 27.76048,3.47265 c 0.56389,0.0249 1.11624,0.16635 1.62091,0.46508 0.90176,0.46679 1.3397,1.49931 1.27812,2.48218 0.0616,0.98279 -0.37636,2.01374 -1.27812,2.48046 -1.34582,0.79661 -3.03622,0.48002 -4.35803,-0.20325 -0.92386,-0.41101 -1.9014,-1.11157 -2.95588,-1.3746 -1.51904,-0.37902 -3.04374,-0.21807 -4.69049,-0.25321 -1.61248,0.009 -3.67516,-0.0227 -4.83345,0.39102 -1.1583,0.41477 -1.52315,0.83982 -2.40295,0.63734 -0.73568,-0.16963 -1.22645,-0.76622 -1.22645,-1.55028 v -0.25495 c 0,-0.77807 0.49077,-1.38268 1.22645,-1.552 0.8798,-0.20257 1.24465,0.22281 2.40295,0.63733 1.15829,0.41474 3.22097,0.38168 4.83345,0.39102 1.64675,-0.0351 3.17145,0.12592 4.69049,-0.25321 1.05448,-0.2634 2.03202,-0.96181 2.95588,-1.37287 0.82614,-0.42703 1.79728,-0.71149 2.73712,-0.67006 z m -54.938727,0.27732 c 0.939827,-0.0414 1.909262,0.24132 2.735389,0.66835 0.923854,0.4111 1.903098,1.11119 2.957598,1.37459 1.51903,0.37913 3.04202,0.21778 4.68875,0.25322 1.61249,-0.009 3.67516,0.0237 4.83346,-0.39102 1.15831,-0.41451 1.52487,-0.83991 2.40466,-0.63735 0.73568,0.16936 1.22472,0.77393 1.22472,1.55202 v 0.25493 c 0,0.78413 -0.48904,1.38066 -1.22472,1.55029 -0.87979,0.20251 -1.24635,-0.2226 -2.40466,-0.63735 -1.1583,-0.41367 -3.22097,-0.38167 -4.83346,-0.391 -1.64673,0.0354 -3.16972,-0.12575 -4.68875,0.25321 -1.0545,0.26308 -2.033744,0.96346 -2.957598,1.37458 -1.321802,0.68331 -3.012239,0.99991 -4.358029,0.20327 -0.90176,-0.46674 -1.33979,-1.49762 -1.27812,-2.48046 v -0.002 c -0.0616,-0.98284 0.37636,-2.01375 1.27812,-2.48046 0.50467,-0.29871 1.05873,-0.44023 1.62264,-0.46508 z m 13.764817,6.41475 c 0.82237,0.006 1.41973,0.0244 1.46415,0.0465 0.0582,0.0283 0.0556,0.033 -0.32039,0.76998 -0.891,1.74618 -1.80935,3.07714 -2.67509,3.87572 -0.86805,0.80068 -1.88522,1.18598 -2.86115,1.0852 -0.57954,-0.0595 -0.9746,-0.23977 -1.40043,-0.63734 -0.24791,-0.2311 -0.60586,-0.76034 -0.72863,-1.07831 -0.24317,-0.62944 -0.22119,-1.17171 0.0689,-1.75011 0.24483,-0.48814 0.73897,-1.02114 1.23851,-1.33497 0.42821,-0.26906 1.08414,-0.51701 1.78282,-0.67523 0.76115,-0.17277 2.33443,-0.31085 3.43131,-0.30145 z m 27.15415,0 c 1.09684,-0.009 2.67015,0.12868 3.43128,0.30145 0.69869,0.15818 1.35463,0.40789 1.78285,0.67695 0.49952,0.31389 0.99366,0.84687 1.2385,1.33497 0.2901,0.57837 0.31208,1.1206 0.0689,1.75011 -0.12278,0.31794 -0.47901,0.84721 -0.72692,1.07831 -0.42583,0.39757 -0.82261,0.57777 -1.40214,0.63734 -0.97595,0.10078 -1.99136,-0.28448 -2.85943,-1.08521 -0.86571,-0.79855 -1.78582,-2.1295 -2.67682,-3.87572 -0.37607,-0.73692 -0.37863,-0.74164 -0.3204,-0.76997 0.0445,-0.022 0.64178,-0.0419 1.46417,-0.0482 z"
       style="font-style:normal;font-variant:normal;font-weight:bold;font-stretch:normal;font-size:50.8px;line-height:1.25;font-family:Georgia;-inkscape-font-specification:'Georgia Bold';stroke-width:1.08859"
       id="path72233" />
    <path
       d="m 50.574148,137.97636 c -12.27292,0 -22.48081,2.48846 -30.62507,7.4655 -8.08771,4.9205 -12.1318591,10.88583 -12.1318591,17.89893 0,3.95903 1.2442097,7.32451 3.7327591,10.09582 2.54506,2.77131 5.93841,4.15649 10.1802,4.15649 4.46804,0 8.08761,-1.1868 10.85891,-3.56222 2.77132,-2.37542 4.15651,-5.57037 4.15651,-9.58594 0,-2.43196 -0.45247,-5.37286 -1.35738,-8.82286 -0.90493,-3.44998 -1.66884,-6.13682 -2.29097,-8.05977 1.69672,-0.67875 3.36552,-1.13118 5.00571,-1.35737 1.64014,-0.28276 3.56305,-0.42374 5.76879,-0.42374 5.82542,0 10.26632,1.75236 13.32041,5.25892 3.11067,3.44999 4.66465,8.65311 4.66465,15.60967 0,8.65329 -1.6114,15.10063 -4.83519,19.34243 -3.1672,4.18525 -8.31462,6.27866 -15.44085,6.27866 h -7.63432 v 10.26462 h 10.7745 c 4.2418,0 7.71868,0.62296 10.43345,1.86724 2.77131,1.18768 4.94999,2.85481 6.53359,5.00399 1.58361,2.14919 2.6573,4.66719 3.22287,7.55162 0.62213,2.88442 0.93363,5.93842 0.93363,9.1622 0,5.65575 -0.67868,10.1802 -2.03604,13.57363 -1.30083,3.44999 -3.1663,6.44658 -5.59826,8.99167 -2.31887,2.43196 -5.06311,4.18606 -8.23031,5.26064 -3.11065,1.07459 -6.30561,1.6123 -9.58596,1.6123 -2.65819,0 -4.97783,-0.17052 -6.95734,-0.50987 -1.97952,-0.28276 -3.59092,-0.70737 -4.83517,-1.27296 0.56557,-1.64015 1.32951,-4.18429 2.29099,-7.63431 1.018,-3.39343 1.52615,-6.47528 1.52615,-9.2466 0,-4.01557 -1.44087,-7.21225 -4.32528,-9.58767 -2.82787,-2.43196 -6.47702,-3.64662 -10.94504,-3.64662 -4.29838,0 -7.7473994,1.38519 -10.3490291,4.15649 -2.54509,2.77131 -3.81888,6.16466 -3.81888,10.18023 0,7.12623 3.98845,13.1211 11.9630591,17.98506 7.97459,4.92047 17.67432,7.38109 29.09889,7.38109 15.9492,0 28.98484,-3.50645 39.10859,-10.51957 10.12377,-7.0131 15.185944,-15.80795 15.185944,-26.38417 0,-5.48607 -1.131154,-10.09578 -3.393414,-13.82857 -2.2623,-3.78933 -5.09008,-6.81549 -8.48352,-9.07779 -3.28033,-2.20573 -7.07041,-3.87455 -11.36878,-5.00571 -4.2418,-1.13118 -8.20068,-1.80986 -11.87692,-2.03604 v -1.35737 c 5.37297,-1.13116 10.06794,-2.74256 14.0835,-4.83517 4.01558,-2.09261 7.26794,-4.58107 9.75648,-7.4655 2.03605,-2.37541 3.56222,-5.11792 4.58023,-8.22858 1.0746,-3.1672 1.61231,-5.99499 1.61231,-8.48352 0,-2.60162 -0.62298,-5.51467 -1.86724,-8.73845 -1.18771,-3.28032 -3.36468,-6.33431 -6.53187,-9.1622 -3.22379,-2.88443 -7.63513,-5.31719 -13.2343,-7.29669 -5.54263,-1.9795 -12.5555,-2.96794 -21.03913,-2.96794 z m 17.99885,12.46087 c 0.27287,-0.013 0.5544,0.0226 0.85093,0.10163 0.66742,0.179 1.45425,0.65629 1.97059,1.19544 0.44261,0.46223 0.91767,1.21035 1.29191,2.03605 0.40768,0.89953 0.97898,2.8169 1.24711,4.17888 0.0489,0.24804 0.0778,0.40874 0.11714,0.6184 5.84506,7.81322 6.25813,15.35367 -1.09554,23.34388 h -1.6657 c 7.27509,-7.22218 8.00038,-14.68141 2.11872,-22.28624 -0.0875,-0.024 -0.0846,-0.0211 -0.19464,-0.0517 -2.39155,-0.65927 -4.27576,-1.45765 -5.4863,-2.32716 -1.21371,-0.87186 -1.95185,-2.0357 -2.07565,-3.2711 -0.0736,-0.73359 0.0501,-1.27082 0.43407,-1.89997 0.22363,-0.36626 0.7879,-0.94151 1.15066,-1.17477 0.44888,-0.28877 0.88188,-0.44285 1.3367,-0.46336 z m 1.37631,13.2274 c 0.36118,-0.0361 0.72671,0.0115 1.11448,0.14297 0.65455,0.22163 1.40906,0.74992 1.88962,1.32119 0.41193,0.48977 0.83725,1.26718 1.15756,2.11528 0.34892,0.9239 0.79692,2.87314 0.97668,4.24951 0.13473,1.03197 0.21449,1.78385 0.19637,1.84312 -0.024,0.0776 -0.0305,0.074 -1.02147,-0.26872 -2.34414,-0.81188 -4.1706,-1.73115 -5.32266,-2.67683 -1.15504,-0.94817 -1.81801,-2.15432 -1.86206,-3.39513 -0.0273,-0.7368 0.13099,-1.26412 0.55465,-1.86723 0.24641,-0.35081 0.84589,-0.88921 1.22301,-1.09898 0.37267,-0.20684 0.7331,-0.32916 1.09382,-0.36518 z m 14.59508,0 c 0.36121,0.0361 0.71887,0.15782 1.09209,0.36518 0.37706,0.2094 0.97642,0.74786 1.22301,1.09898 0.42365,0.60308 0.58203,1.13043 0.55468,1.86723 -0.0441,1.24081 -0.70358,2.44697 -1.85865,3.39513 -1.15205,0.94568 -2.98193,1.86495 -5.32609,2.67683 -0.99094,0.34271 -0.9975,0.34637 -1.02147,0.26872 -0.018,-0.0593 0.0633,-0.81115 0.19809,-1.84312 0.17978,-1.37637 0.62606,-3.32561 0.97496,-4.24951 0.32031,-0.8481 0.7456,-1.62554 1.15755,-2.11528 0.48057,-0.5713 1.2368,-1.09957 1.89135,-1.32119 0.38777,-0.13137 0.7533,-0.17907 1.11448,-0.14297 z m -7.8255,52.2223 h 1.66571 c 7.35364,7.99022 6.94057,15.5307 1.09553,23.34389 -0.0393,0.20967 -0.0683,0.37036 -0.11713,0.61839 -0.26814,1.36198 -0.83943,3.27939 -1.24713,4.17889 -0.37424,0.8257 -0.84931,1.57384 -1.29191,2.03604 -0.51632,0.53916 -1.30317,1.01644 -1.97058,1.19544 -0.29654,0.0796 -0.57805,0.11464 -0.85093,0.10164 -0.45482,-0.0206 -0.88782,-0.1746 -1.33669,-0.46336 -0.36278,-0.23328 -0.92707,-0.80852 -1.15067,-1.17479 -0.38401,-0.62913 -0.5076,-1.16636 -0.43407,-1.89995 0.12379,-1.2354 0.86195,-2.39753 2.07566,-3.26939 1.21052,-0.86951 3.09474,-1.66959 5.48629,-2.32888 0.11013,-0.0307 0.10708,-0.0278 0.19466,-0.0517 5.88165,-7.60483 5.15635,-15.06406 -2.11874,-22.28625 z m 3.96531,8.53691 c 0.0193,0.005 0.0233,0.0183 0.0293,0.0379 0.018,0.0593 -0.0616,0.81287 -0.19638,1.84485 -0.17975,1.37637 -0.62775,3.32391 -0.97668,4.2478 -0.3203,0.84809 -0.74561,1.62551 -1.15754,2.11527 -0.48057,0.57128 -1.23508,1.09956 -1.88963,1.32119 -0.77556,0.26277 -1.46017,0.19421 -2.20658,-0.22048 -0.37706,-0.2094 -0.97812,-0.74959 -1.22473,-1.10071 -0.42365,-0.60311 -0.58202,-1.13043 -0.55465,-1.86723 0.0441,-1.2408 0.70701,-2.44697 1.86207,-3.39513 1.15205,-0.94569 2.97851,-1.86497 5.32267,-2.67684 0.74319,-0.257 0.93369,-0.32261 0.99216,-0.30661 z m 3.98251,0 h 0.003 c 0.0585,-0.016 0.24731,0.0497 0.99047,0.30662 2.34413,0.81187 4.17404,1.73115 5.32609,2.67683 1.15506,0.94817 1.81456,2.15433 1.85862,3.39513 0.0273,0.7368 -0.13097,1.26416 -0.55465,1.86723 -0.24659,0.35112 -0.84595,0.89133 -1.22301,1.10071 -0.74644,0.41466 -1.43102,0.48318 -2.20657,0.22049 -0.65455,-0.22164 -1.41079,-0.74988 -1.89135,-1.3212 -0.41195,-0.48972 -0.83725,-1.26718 -1.15755,-2.11527 -0.34893,-0.92389 -0.79521,-2.87142 -0.97496,-4.24779 -0.13473,-1.03198 -0.21622,-1.78557 -0.1981,-1.84485 0.005,-0.0193 0.0101,-0.0325 0.0293,-0.0379 z"
       style="font-style:normal;font-variant:normal;font-weight:bold;font-stretch:normal;font-size:50.8px;line-height:1.25;font-family:Georgia;-inkscape-font-specification:'Georgia Bold';stroke-width:0.904917"
       id="path72235" />
    <path
       d="m 163.64613,278.80284 -60.91227,77.11597 v 15.60983 h 56.16146 v 32.15286 h 28.42009 v -32.15286 h 18.23971 v -17.90041 h -18.23971 v -74.82539 z m -4.75081,20.27581 v 54.54958 H 115.71379 Z M 173.2096,317.861 c 0.13067,-0.008 0.26201,-0.008 0.39237,0 1.04257,-0.0653 2.13667,0.3991 2.63173,1.35561 0.84503,1.42754 0.50912,3.21974 -0.216,4.6218 -0.43601,0.97994 -1.17906,2.01866 -1.45809,3.13717 -0.40198,1.6113 -0.23167,3.22852 -0.26901,4.97527 0.0101,1.71039 -0.0233,3.89685 0.41537,5.12552 0.4399,1.22862 0.88996,1.61718 0.67517,2.55038 -0.17968,0.78037 -0.81201,1.30081 -1.64375,1.30081 h -0.27236 c -0.82527,0 -1.46408,-0.52044 -1.64368,-1.30081 -0.21468,-0.9332 0.23532,-1.32176 0.67517,-2.55038 0.43995,-1.22867 0.40542,-3.41513 0.41537,-5.12552 -0.0373,-1.74675 0.13298,-3.36397 -0.26869,-4.97527 -0.279,-1.11851 -1.02208,-2.15723 -1.45812,-3.13717 -0.72474,-1.40206 -1.06066,-3.19426 -0.21566,-4.6218 0.4332,-0.83695 1.32467,-1.29728 2.23928,-1.35561 z m -6.94235,10.85371 c 0.30398,0.012 0.60163,0.0935 0.90844,0.24746 0.51774,0.25957 1.08276,0.78511 1.41568,1.31495 0.28536,0.45424 0.54973,1.15003 0.71758,1.89115 0.18301,0.80736 0.32967,2.47564 0.32001,3.63911 -0.007,0.87231 -0.0267,1.50647 -0.0497,1.55356 -0.0267,0.0616 -0.0363,0.058 -0.8183,-0.34112 -1.85222,-0.94511 -3.26401,-1.9184 -4.11105,-2.83672 -0.84928,-0.92076 -1.25748,-1.99944 -1.15056,-3.03466 0.0637,-0.6147 0.25333,-1.03469 0.67521,-1.48639 0.24567,-0.26303 0.80619,-0.64212 1.14345,-0.77236 0.33388,-0.12893 0.64511,-0.18677 0.94912,-0.17497 z m 14.66953,0 c 0.30401,-0.012 0.61526,0.046 0.94909,0.17496 0.33731,0.13024 0.89834,0.50935 1.14358,0.77237 0.42169,0.4517 0.61185,0.87169 0.67514,1.48639 0.10699,1.03522 -0.30136,2.11389 -1.15062,3.03466 -0.84701,0.91831 -2.25878,1.89161 -4.11102,2.83671 -0.78208,0.39913 -0.78915,0.40267 -0.81653,0.34113 -0.0233,-0.0471 -0.0443,-0.68125 -0.0513,-1.55357 -0.0101,-1.16347 0.13668,-2.83175 0.32001,-3.63911 0.16798,-0.74112 0.43233,-1.43691 0.71755,-1.89114 0.333,-0.52985 0.89797,-1.05536 1.41573,-1.31495 0.307,-0.1539 0.60442,-0.23567 0.90845,-0.24747 z m -7.33481,15.8555 c 3.03335,3.37026 4.82328,4.40865 6.8081,5.81304 -2.58963,1.74576 -4.90347,3.65802 -6.8081,5.81481 -1.95561,-2.18887 -4.16771,-4.17365 -6.80804,-5.81481 1.97207,-1.63378 3.95388,-2.83435 6.80804,-5.81304 z m 0.15902,14.6519 h 0.27064 c 0.83167,0 1.4659,0.52045 1.64547,1.30082 0.215,0.9332 -0.23535,1.32 -0.67516,2.54862 -0.4394,1.22866 -0.40511,3.41689 -0.41535,5.12727 0.0373,1.74674 -0.13332,3.36398 0.26869,4.97528 0.27898,1.1185 1.02028,2.15545 1.45634,3.13541 0.72478,1.40205 1.06247,3.19425 0.21768,4.62179 -0.49506,0.95652 -1.58917,1.42271 -2.63168,1.35738 -1.04256,0.0653 -2.13664,-0.40086 -2.63173,-1.35738 -0.845,-1.42754 -0.50909,-3.21974 0.21598,-4.62179 0.43606,-0.97996 1.17903,-2.01691 1.45814,-3.13541 0.40188,-1.6113 0.23167,-3.22854 0.269,-4.97528 -0.01,-1.71038 0.0233,-3.89861 -0.41531,-5.12727 -0.43985,-1.22862 -0.88995,-1.61542 -0.67517,-2.54862 0.17968,-0.78037 0.81839,-1.30082 1.64368,-1.30082 z m -4.21177,3.80701 c 0.0167,0.002 0.0233,0.013 0.03,0.0283 0.0233,0.0471 0.0427,0.68126 0.0497,1.55357 0.0101,1.16347 -0.13666,2.83352 -0.31999,3.64088 -0.16801,0.74112 -0.4323,1.43514 -0.71755,1.88938 -0.33297,0.52984 -0.89794,1.05537 -1.4157,1.31495 -0.61354,0.3078 -1.18994,0.33036 -1.85756,0.0725 -0.33732,-0.1302 -0.89795,-0.50935 -1.1435,-0.77236 -0.42175,-0.4517 -0.61156,-0.87166 -0.67517,-1.4864 -0.107,-1.03518 0.30134,-2.11212 1.15057,-3.03289 0.84704,-0.91832 2.25883,-1.89335 4.11104,-2.83847 0.5865,-0.29937 0.73779,-0.37589 0.78825,-0.3694 z m 8.1054,0 c 0.0503,-0.007 0.20167,0.0701 0.78828,0.3694 1.85221,0.94512 3.26398,1.92016 4.11101,2.83847 0.84932,0.92077 1.25751,1.99771 1.1506,3.03289 -0.0633,0.61474 -0.25334,1.0347 -0.67514,1.4864 -0.24532,0.263 -0.80632,0.64216 -1.14356,0.77236 -0.66765,0.25786 -1.24401,0.23536 -1.85753,-0.0725 -0.51776,-0.25957 -1.08283,-0.78511 -1.41571,-1.31495 -0.28532,-0.45424 -0.54972,-1.14826 -0.71757,-1.88938 -0.18302,-0.80736 -0.32967,-2.4774 -0.32002,-3.64088 0.007,-0.87231 0.0267,-1.50642 0.0513,-1.55356 0.007,-0.0153 0.0101,-0.026 0.0267,-0.0283 z"
       style="font-style:normal;font-variant:normal;font-weight:bold;font-stretch:normal;font-size:50.8px;line-height:1.25;font-family:Georgia;-inkscape-font-specification:'Georgia Bold';stroke-width:0.904917"
       id="path72237" />
    <path
       d="m 225.37922,279.4073 -8.2291,64.04061 6.6172,2.20574 c 2.82784,-3.45002 6.02335,-6.22131 9.58644,-8.31394 3.56311,-2.14919 7.97462,-3.22377 13.2344,-3.22377 6.78691,0 12.3013,2.57335 16.54308,7.72009 4.29836,5.09016 6.44755,11.62253 6.44755,19.59712 0,5.48605 -0.65045,10.37828 -1.95125,14.67664 -1.30085,4.35492 -3.22379,8.11598 -5.7689,11.28319 -2.20572,2.77133 -4.86381,4.86394 -7.97454,6.27786 -3.11071,1.47051 -6.2779,2.20574 -9.50161,2.20574 -1.58361,0 -3.28033,-0.1413 -5.09016,-0.42418 -1.80986,-0.22626 -3.39341,-0.59384 -4.75083,-1.10286 0.62214,-1.75328 1.41396,-4.29837 2.3754,-7.63525 0.9615,-3.33688 1.44222,-6.41927 1.44222,-9.24713 0,-4.01557 -1.44225,-7.21105 -4.32668,-9.58647 -2.82784,-2.43197 -6.47578,-3.64795 -10.94383,-3.64795 -4.29839,0 -7.74837,1.38565 -10.35,4.15697 -2.54508,2.77132 -3.81762,6.16476 -3.81762,10.18032 0,6.78687 3.87419,12.66885 11.62254,17.6459 7.74833,4.97706 17.41969,7.46557 29.01392,7.46557 14.98772,0 27.28897,-3.95903 36.90366,-11.87705 9.67129,-7.86148 14.507,-18.01352 14.507,-30.45613 0,-7.06968 -1.44225,-12.97993 -4.32665,-17.73074 -2.88436,-4.80738 -6.44748,-8.62497 -10.68936,-11.45287 -4.63769,-3.05409 -9.41675,-5.11845 -14.33726,-6.19303 -4.86395,-1.13115 -9.81263,-1.69672 -14.84633,-1.69672 -6.50401,0 -12.1598,0.87664 -16.96717,2.62992 -4.80735,1.75328 -8.73813,3.59139 -11.79219,5.51434 l 3.47824,-27.99589 h 65.57825 V 279.4073 Z m 16.61723,2.20219 c 0.91236,0.0181 1.83841,0.42334 2.64406,1.16651 0.91832,0.84703 1.89156,2.25878 2.83676,4.11101 0.39881,0.7817 0.40293,0.78918 0.34105,0.81655 -0.0473,0.0223 -0.68123,0.0444 -1.55358,0.0513 -1.1634,0.01 -2.83173,-0.1369 -3.63906,-0.3199 -0.74112,-0.16783 -1.43692,-0.43232 -1.89119,-0.71757 -0.52982,-0.33289 -1.05534,-0.89795 -1.31492,-1.4157 -0.308,-0.61355 -0.33033,-1.1899 -0.0723,-1.85755 h 0.003 c 0.13031,-0.33726 0.50758,-0.89795 0.77058,-1.14352 0.45169,-0.42137 0.87167,-0.61154 1.48637,-0.67516 0.12933,-0.0133 0.26033,-0.0185 0.39063,-0.0161 z m 37.34025,0 c 0.13033,-0.003 0.26133,0.002 0.39058,0.0161 0.61468,0.0636 1.03476,0.2538 1.48637,0.67516 0.263,0.24558 0.64217,0.80626 0.77238,1.14352 0.25799,0.66765 0.23532,1.24401 -0.0727,1.85755 -0.25966,0.51775 -0.78515,1.08279 -1.31503,1.41571 -0.45416,0.28523 -1.14827,0.54974 -1.88937,0.71756 -0.80735,0.18297 -2.47737,0.32983 -3.64087,0.3199 -0.87231,-0.007 -1.50646,-0.029 -1.55353,-0.0513 -0.062,-0.0273 -0.0577,-0.0349 0.34139,-0.81654 0.94499,-1.85223 1.91833,-3.26399 2.83665,-4.11102 0.80571,-0.74317 1.73165,-1.14822 2.64406,-1.1665 z m -18.84421,3.31038 c 1.63375,1.97206 2.83433,3.95393 5.81306,6.80809 -3.37034,3.03331 -4.4087,4.82324 -5.81306,6.80809 -1.74577,-2.58967 -3.65622,-4.9035 -5.81308,-6.80809 2.18893,-1.95565 4.17193,-4.16777 5.81308,-6.80809 z m 29.44696,3.68154 c 0.59815,0.0263 1.18436,0.178 1.71969,0.49487 0.95647,0.49507 1.42092,1.58915 1.35557,2.63168 0.0653,1.04254 -0.3991,2.13662 -1.35557,2.63169 -1.42759,0.84505 -3.21982,0.50915 -4.62177,-0.21559 -0.98001,-0.43605 -2.01869,-1.17908 -3.13719,-1.45812 -1.61126,-0.40198 -3.22683,-0.2314 -4.97353,-0.26864 -1.71035,0.0103 -3.89869,-0.024 -5.12723,0.41535 -1.2287,0.43994 -1.61724,0.88995 -2.55042,0.67515 -0.78042,-0.17956 -1.30085,-0.81378 -1.30085,-1.64546 v -0.27044 c 0,-0.82528 0.52043,-1.4641 1.30085,-1.64369 0.93318,-0.2148 1.32172,0.23533 2.55042,0.67515 1.22854,0.43994 3.41688,0.40543 5.12723,0.41535 1.7467,-0.0373 3.36227,0.1332 4.97353,-0.26863 1.1185,-0.27907 2.15718,-1.02208 3.13719,-1.45812 0.87622,-0.45296 1.90511,-0.75444 2.90208,-0.7105 z m -58.27532,0.29513 c 0.99692,-0.044 2.02578,0.25757 2.90208,0.7105 0.97996,0.436 2.01692,1.17903 3.13542,1.45812 1.61128,0.40187 3.22852,0.2296 4.97528,0.2669 1.7104,-0.01 3.89858,0.0247 5.12728,-0.41534 1.22862,-0.43984 1.61721,-0.88994 2.55045,-0.67515 0.78028,0.1796 1.29897,0.82014 1.29897,1.64547 v 0.27043 c 0,0.83168 -0.51869,1.46591 -1.29897,1.64546 -0.93324,0.2148 -1.32183,-0.23523 -2.55045,-0.67515 -1.2287,-0.43939 -3.41688,-0.40508 -5.12728,-0.41534 -1.74676,0.0373 -3.364,-0.1333 -4.97528,0.26864 -1.1185,0.27903 -2.15546,1.02031 -3.13542,1.45635 -1.40205,0.72477 -3.19423,1.06245 -4.62179,0.2174 -0.95653,-0.49507 -1.4227,-1.58915 -1.3574,-2.63169 -0.0653,-1.04253 0.40087,-2.13661 1.3574,-2.63168 0.53538,-0.31687 1.12156,-0.46852 1.71971,-0.49488 z m 14.60061,6.80455 c 0.87235,0.007 1.50637,0.0273 1.55358,0.0495 0.062,0.0273 0.0577,0.0362 -0.34105,0.81831 -0.9452,1.85223 -1.91844,3.26399 -2.83676,4.11101 -0.9208,0.84933 -1.99945,1.25755 -3.03469,1.1506 -0.61471,-0.0636 -1.03465,-0.25523 -1.48638,-0.67693 -0.26299,-0.24556 -0.64034,-0.80452 -0.77059,-1.14175 h -0.003 c -0.258,-0.66765 -0.23535,-1.24404 0.0723,-1.85755 0.25969,-0.51778 0.78513,-1.08281 1.31496,-1.41571 0.45423,-0.28523 1.15003,-0.5497 1.89119,-0.71756 0.80732,-0.18297 2.47565,-0.32983 3.63905,-0.31993 z m 28.8036,0 c 1.1635,-0.01 2.83352,0.1369 3.64093,0.31994 0.74107,0.16786 1.43515,0.43232 1.88931,0.71756 0.52988,0.33287 1.05545,0.89792 1.31506,1.41571 0.308,0.6135 0.33033,1.1899 0.0723,1.85755 -0.13034,0.33722 -0.5093,0.89619 -0.77232,1.14175 -0.45165,0.42171 -0.8717,0.61331 -1.4864,0.67693 -1.03527,0.10693 -2.11389,-0.30124 -3.03467,-1.1506 -0.91832,-0.84703 -1.89166,-2.25878 -2.83665,-4.11101 -0.39883,-0.78209 -0.40307,-0.79095 -0.34139,-0.81831 0.0473,-0.0223 0.68122,-0.0427 1.55353,-0.0495 z m 1.36625,50.31132 c 0.14235,0.007 0.28768,0.0243 0.43828,0.053 0.67869,0.13017 1.49789,0.54955 2.05198,1.04985 0.47503,0.42889 1.00383,1.14247 1.43693,1.93885 0.4718,0.8676 1.18218,2.73671 1.54823,4.07567 0.0667,0.24386 0.10634,0.40175 0.16066,0.60799 6.39625,7.36878 7.35584,14.86105 0.60087,23.3635 l -1.66135,0.12017 c 6.73227,-7.73072 6.9125,-15.22425 0.49496,-22.38258 -0.089,-0.0163 -0.086,-0.0133 -0.19799,-0.0371 -2.43303,-0.48413 -4.36938,-1.14347 -5.63978,-1.92296 -1.27378,-0.78154 -2.09164,-1.8875 -2.30473,-3.11065 -0.12666,-0.72634 -0.044,-1.27115 0.29334,-1.92649 0.19632,-0.38149 0.71721,-0.99772 1.0622,-1.25663 0.42611,-0.32013 0.84762,-0.50176 1.29899,-0.55674 0.13502,-0.016 0.2757,-0.0227 0.41715,-0.0157 z m 16.47055,12.04849 c 0.36288,0.01 0.728,0.1048 1.11527,0.28453 0.39122,0.1815 1.02929,0.6771 1.30085,1.00921 0.46631,0.57078 0.66183,1.08546 0.68927,1.8222 0.046,1.24073 -0.52514,2.49126 -1.60843,3.52069 -1.0804,1.0267 -2.83752,2.07616 -5.11664,3.05588 -0.96229,0.41349 -0.97296,0.41704 -1.00031,0.34109 -0.0233,-0.0578 0.003,-0.81329 0.0637,-1.85225 0.0793,-1.38582 0.38513,-3.3622 0.66625,-4.30897 0.25802,-0.86906 0.62505,-1.67682 1.00041,-2.19513 0.43781,-0.60462 1.15366,-1.18434 1.79036,-1.45282 0.37727,-0.15906 0.73644,-0.2343 1.09932,-0.22446 z m -14.00855,1.02863 c 0.186,0.0107 0.37629,0.0405 0.57439,0.0919 0.66892,0.17374 1.46063,0.64569 1.98133,1.18064 0.44638,0.4586 0.92691,1.20284 1.30783,2.02546 0.41503,0.89619 1.00233,2.80785 1.28141,4.16757 0.20934,1.01948 0.34433,1.7635 0.33033,1.82397 -0.0167,0.0794 -0.0267,0.0772 -1.0374,-0.19266 -2.39684,-0.63978 -4.28795,-1.42389 -5.50548,-2.2835 -1.22087,-0.86195 -1.9676,-2.01769 -2.10156,-3.25206 -0.0793,-0.73293 0.04,-1.27125 0.41894,-1.90351 0.22066,-0.36807 0.77915,-0.94974 1.14001,-1.18593 0.53581,-0.35079 1.0518,-0.50362 1.61007,-0.4719 z"
       style="font-style:normal;font-variant:normal;font-weight:bold;font-stretch:normal;font-size:50.8px;line-height:1.25;font-family:Georgia;-inkscape-font-specification:'Georgia Bold';stroke-width:0.904917"
       id="path72239" />
    <path
       d="m 81.165126,275.80587 c -23.980322,2.82789 -42.955352,11.00041 -56.925042,24.51762 -13.96965,13.51721 -20.9544585,30.62584 -20.9544585,51.32582 0,15.49674 4.43982,27.85451 13.3192185,37.07336 8.87957,9.16228 20.64353,13.74344 35.29178,13.74344 14.02632,0 25.535752,-4.04387 34.52832,-12.13154 9.0492,-8.08773 13.573769,-18.12664 13.573769,-30.11682 0,-11.31146 -3.365167,-20.50204 -10.095516,-27.57172 -6.730241,-7.12623 -14.95938,-10.68935 -24.687253,-10.68935 -5.54261,0 -10.74589,0.76351 -15.60984,2.29057 -4.80739,1.52705 -9.67127,4.49631 -14.59179,8.9078 0.84837,-4.92049 2.09263,-9.89754 3.73279,-14.93115 1.64016,-5.09016 3.90249,-9.64304 6.78691,-13.65861 2.99752,-4.18526 6.78688,-7.88977 11.368,-11.11352 4.63768,-3.28035 10.37826,-5.8537 17.221671,-7.72008 l 8.99264,-1.52705 z m -60.187592,40.21759 c 0.13067,-0.008 0.262,-0.008 0.39236,0 1.04247,-0.0653 2.13656,0.39909 2.63166,1.35561 0.84503,1.42755 0.50913,3.21974 -0.216,4.6218 -0.4361,0.97994 -1.17909,2.01867 -1.45809,3.13718 -0.402,1.6113 -0.23167,3.22853 -0.269,4.97527 0.01,1.7104 -0.0233,3.89686 0.41536,5.12552 0.4399,1.22862 0.8899,1.61719 0.67513,2.55038 -0.17966,0.78038 -0.81203,1.30083 -1.64366,1.30083 h -0.27066 c -0.82527,0 -1.46586,-0.52045 -1.64536,-1.30083 -0.21467,-0.93319 0.23533,-1.32176 0.67513,-2.55038 0.43986,-1.22866 0.40543,-3.41512 0.41523,-5.12552 -0.0373,-1.74674 0.13333,-3.36397 -0.26867,-4.97527 -0.27899,-1.11851 -1.02206,-2.15724 -1.45819,-3.13718 -0.72466,-1.40206 -1.06056,-3.19425 -0.21567,-4.6218 0.43314,-0.83695 1.3246,-1.29728 2.2393,-1.35561 z m -6.94248,10.85372 c 0.304,0.012 0.6017,0.0935 0.90847,0.24747 0.51766,0.25957 1.08283,0.78511 1.41576,1.31495 0.28533,0.45424 0.5497,1.15003 0.71746,1.89115 0.183,0.80736 0.32967,2.47564 0.32,3.63911 -0.007,0.87231 -0.0267,1.50647 -0.0493,1.55355 -0.0267,0.0619 -0.0363,0.0577 -0.8183,-0.34108 -1.85229,-0.9451 -3.26405,-1.9184 -4.11108,-2.83672 -0.84934,-0.92077 -1.25743,-1.99944 -1.15057,-3.03466 0.0637,-0.61469 0.25567,-1.03469 0.67687,-1.48639 0.24566,-0.26303 0.80629,-0.64212 1.14356,-0.77236 0.33386,-0.12893 0.6433,-0.18677 0.94733,-0.17497 z m 14.66955,0 c 0.304,-0.012 0.61533,0.046 0.94917,0.17497 0.33729,0.13023 0.89793,0.50935 1.14343,0.77237 0.42179,0.45169 0.61156,0.87169 0.67519,1.48638 0.107,1.03523 -0.30133,2.11389 -1.15059,3.03466 -0.84703,0.91832 -2.25883,1.89162 -4.11096,2.83672 -0.78179,0.39878 -0.78919,0.40301 -0.81659,0.34109 -0.02,-0.0471 -0.0443,-0.68125 -0.0513,-1.55356 -0.01,-1.16347 0.137,-2.83175 0.32,-3.63911 0.168,-0.74112 0.4324,-1.43691 0.7176,-1.89115 0.33267,-0.52984 0.89786,-1.05535 1.41566,-1.31495 0.307,-0.1539 0.6044,-0.23567 0.90843,-0.24747 z m 22.59823,6.44754 c 5.25981,0 9.4451,2.62994 12.55575,7.88975 3.167193,5.25985 4.750822,12.35779 4.750822,21.29385 0,10.35001 -1.555401,18.35286 -4.666022,24.00861 -3.05412,5.65575 -7.09791,8.48362 -12.13156,8.48362 -5.20325,0 -9.4734,-3.59141 -12.81029,-10.7742 -3.28028,-7.23934 -4.92048,-17.64591 -4.92048,-31.21967 v -2.71475 c 0.0563,-1.07459 0.11333,-2.234 0.16967,-3.47828 0.0563,-1.13113 0.0847,-2.03605 0.0847,-2.71475 0.0563,-0.73525 0.085,-1.24427 0.085,-1.52705 2.60163,-3.78933 5.17505,-6.27786 7.72011,-7.46557 2.60166,-1.1877 5.65575,-1.78156 9.1623,-1.78156 z m 23.812382,9.29662 c 0.14233,0.007 0.28733,0.0243 0.43837,0.053 0.678691,0.13017 1.497859,0.54955 2.05195,1.04985 0.475001,0.42888 1.003731,1.1407 1.43693,1.93708 0.4718,0.8676 1.182169,2.73848 1.548228,4.07744 0.0667,0.24386 0.106331,0.40175 0.160671,0.608 6.396209,7.36877 7.355811,14.86104 0.600861,23.3635 l -1.661361,0.12016 c 6.73224,-7.73073 6.912508,-15.22425 0.4949,-22.38258 -0.089,-0.0163 -0.086,-0.0133 -0.198001,-0.0371 -2.433058,-0.48412 -4.369419,-1.14523 -5.639808,-1.92471 -1.27373,-0.78154 -2.093431,-1.88574 -2.306431,-3.1089 -0.126669,-0.72634 -0.0423,-1.27114 0.295331,-1.92648 0.196339,-0.38148 0.71733,-0.99773 1.06227,-1.25664 0.426659,-0.32053 0.84699,-0.50377 1.298991,-0.5585 0.135667,-0.0163 0.275,-0.0207 0.417099,-0.014 z m -53.745322,0.11137 c 3.03326,3.37025 4.82319,4.40864 6.80805,5.81303 -2.58969,1.74576 -4.90349,3.65624 -6.80805,5.81304 -1.95572,-2.18887 -4.16781,-4.17187 -6.80817,-5.81304 1.97209,-1.63378 3.95395,-2.83435 6.80817,-5.81303 z m 70.215902,11.93713 c 0.36286,0.01 0.72803,0.10483 1.115229,0.28453 0.391301,0.1815 1.029261,0.67532 1.30083,1.00743 0.466391,0.57078 0.661932,1.08723 0.689361,1.82397 0.046,1.24073 -0.526931,2.49126 -1.61013,3.5207 -1.080489,1.02669 -2.83582,2.07615 -5.114951,3.05586 -0.962391,0.41349 -0.97293,0.41528 -1.000359,0.33935 -0.02,-0.0578 0.003,-0.81151 0.0637,-1.85048 0.0793,-1.38582 0.383432,-3.3622 0.664491,-4.30897 0.258001,-0.86907 0.62683,-1.67681 1.0022,-2.19513 0.437772,-0.60462 1.151832,-1.18434 1.78856,-1.45282 0.377272,-0.15907 0.7382,-0.23427 1.1011,-0.22447 z m -14.01032,1.02688 c 0.186,0.0107 0.378,0.0423 0.576199,0.0937 0.668891,0.17373 1.458791,0.64569 1.97952,1.18064 0.446371,0.45861 0.928672,1.20284 1.309661,2.02546 0.414999,0.89618 1.002268,2.80785 1.281369,4.16757 0.209331,1.01948 0.344332,1.76174 0.33033,1.8222 -0.01669,0.0794 -0.0267,0.0772 -1.03923,-0.19266 -2.396858,-0.63978 -4.286219,-1.42388 -5.503749,-2.28351 -1.220761,-0.86194 -1.967521,-2.0159 -2.101461,-3.25027 -0.0793,-0.73294 0.038,-1.27126 0.417099,-1.90352 0.220671,-0.36807 0.780831,-0.94973 1.141701,-1.18593 0.535901,-0.35078 1.050161,-0.50538 1.608389,-0.47366 z m -56.046582,1.68787 h 0.27067 c 0.83163,0 1.46589,0.52045 1.64543,1.30082 0.21466,0.9332 -0.23534,1.32 -0.67513,2.54862 -0.43937,1.22866 -0.40507,3.41689 -0.4153,5.12727 0.0373,1.74675 -0.13334,3.36399 0.26866,4.97529 0.27934,1.1185 1.02217,2.15545 1.4582,3.1354 0.72476,1.40205 1.06066,3.19426 0.21566,4.6218 -0.49499,0.95652 -1.58912,1.4227 -2.63169,1.35738 -1.04246,0.0653 -2.13659,-0.40086 -2.63165,-1.35738 -0.84503,-1.42754 -0.50914,-3.21975 0.21566,-4.6218 0.436,-0.97995 1.17903,-2.0169 1.45806,-3.1354 0.40187,-1.6113 0.23167,-3.22854 0.269,-4.97529 -0.01,-1.71038 0.0233,-3.89861 -0.41536,-5.12727 -0.43977,-1.22862 -0.8899,-1.61542 -0.67513,-2.54862 0.17966,-0.78037 0.81839,-1.30082 1.64369,-1.30082 z m -4.21168,3.80702 c 0.0167,0.002 0.0233,0.0127 0.03,0.0283 0.02,0.0471 0.0427,0.68125 0.0493,1.55356 0.01,1.16347 -0.137,2.83176 -0.32,3.63911 -0.16766,0.74112 -0.4323,1.43691 -0.7175,1.89114 -0.33299,0.52985 -0.89806,1.05537 -1.41572,1.31496 -0.61353,0.3078 -1.18817,0.33036 -1.8558,0.0725 -0.3373,-0.1302 -0.89799,-0.50936 -1.14359,-0.77236 -0.4212,-0.45171 -0.61323,-0.87167 -0.67683,-1.48641 -0.10667,-1.03517 0.30133,-2.11387 1.15053,-3.03465 0.84703,-0.91832 2.25882,-1.89158 4.11108,-2.83671 0.58647,-0.2991 0.7378,-0.37594 0.78826,-0.36939 z m 8.10537,0 c 0.0507,-0.007 0.202,0.0703 0.78826,0.36939 1.85213,0.94513 3.26393,1.91839 4.11096,2.83671 0.84933,0.92078 1.25756,1.99948 1.15059,3.03466 -0.0637,0.61473 -0.25333,1.03469 -0.67519,1.4864 -0.24567,0.26299 -0.80624,0.64215 -1.14343,0.77236 -0.66764,0.2579 -1.24407,0.23536 -1.85763,-0.0725 -0.5178,-0.25957 -1.08283,-0.78511 -1.41566,-1.31496 -0.28534,-0.45423 -0.54973,-1.15002 -0.7176,-1.89114 -0.183,-0.80735 -0.32967,-2.47564 -0.31967,-3.63911 0.007,-0.87231 0.0267,-1.50642 0.0513,-1.55356 0.007,-0.0153 0.01,-0.026 0.0267,-0.0283 z"
       style="font-style:normal;font-variant:normal;font-weight:bold;font-stretch:normal;font-size:50.8px;line-height:1.25;font-family:Georgia;-inkscape-font-specification:'Georgia Bold';stroke-width:0.904917"
       id="path72241" />
    <path
       d="m 178.37093,90.592724 40.39904,-10.824888 -1.60286,-5.981959 c -4.52074,0.391504 -8.42443,0.354307 -11.71117,-0.111753 -3.35595,-0.505988 -5.68522,-1.55065 -6.9877,-3.133786 -1.63819,-1.961801 -2.84318,-4.273765 -3.61506,-6.935951 -0.77185,-2.662276 -1.79457,-6.369786 -3.06809,-11.122624 L 181.72871,14.950821 292.97749,44.338372 289.68391,32.046561 164.95759,1.5275524 l -9.7515,2.612905 z m -5.04039,-24.588143 c -0.21865,-0.885957 -0.0652,-1.885741 0.4441,-2.856392 0.58051,-1.10624 1.69182,-2.413338 3.23629,-3.805749 0.65185,-0.587533 0.65855,-0.591459 0.7009,-0.539107 0.0338,0.03992 0.2171,0.645257 0.44945,1.486132 0.31077,1.12117 0.60112,2.772344 0.63335,3.59955 0.0297,0.759324 -0.044,1.499417 -0.20196,2.011945 -0.18443,0.598063 -0.59591,1.252315 -1.02883,1.637073 -0.51291,0.4563 -1.06259,0.624984 -1.77425,0.548604 -0.35951,-0.03861 -0.99873,-0.257868 -1.304,-0.448409 -0.52392,-0.327221 -0.81801,-0.683195 -1.03855,-1.260495 -0.0463,-0.121481 -0.0853,-0.246672 -0.11627,-0.373247 z m -9.66438,-36.06796 c -0.0366,-0.125133 -0.0657,-0.252963 -0.0859,-0.381296 -0.0977,-0.610206 -0.0209,-1.065583 0.26913,-1.610981 0.16916,-0.317593 0.61259,-0.828964 0.90467,-1.04201 0.57811,-0.422007 1.13901,-0.548839 1.81137,-0.410091 0.56729,0.116804 1.25078,0.477649 1.70949,0.903259 0.39311,0.364982 0.82649,0.967309 1.18043,1.639704 0.38569,0.732576 0.95976,2.307626 1.25129,3.434054 0.21901,0.844408 0.36308,1.460483 0.35383,1.511745 -0.0103,0.06695 -0.0182,0.06667 -0.87654,-0.116464 -2.03372,-0.433507 -3.64973,-1.009913 -4.70558,-1.677692 -0.92638,-0.585932 -1.55854,-1.373336 -1.81236,-2.249995 z m 8.07655,17.344951 c 1.482,-2.088568 3.08515,-3.762905 5.07112,-7.378749 3.80224,2.470374 5.80038,3.011763 8.08109,3.854621 -2.04962,2.356437 -3.79012,4.800759 -5.07158,7.377039 -2.45554,-1.608217 -5.10551,-2.951041 -8.08063,-3.852911 z m -4.06537,-29.396507 c -0.12941,-0.584546 -0.1363,-1.189577 0.0312,-1.788719 0.23065,-1.052032 1.16725,-1.783777 2.19117,-1.990512 0.99011,-0.332901 2.16881,-0.167971 2.89457,0.627794 1.18574,1.160231 1.32342,2.97876 0.98624,4.520659 -0.16756,1.059354 -0.61645,2.254955 -0.59649,3.407615 0.0288,1.660475 0.61339,3.176303 1.02944,4.873159 0.45263,1.649453 0.98585,3.77197 1.72823,4.845084 0.74293,1.072903 1.27817,1.331723 1.31223,2.288685 0.0285,0.800275 -0.44983,1.465449 -1.25317,1.680704 l -0.26122,0.06999 c -0.79716,0.213598 -1.55018,-0.121628 -1.92562,-0.828948 -0.449,-0.845779 -0.11474,-1.33758 -0.008,-2.638171 0.10693,-1.300685 -0.49275,-3.405393 -0.92584,-5.060083 -0.48812,-1.677548 -0.74155,-3.28212 -1.54673,-4.734554 -0.55906,-1.008207 -1.54389,-1.819646 -2.21867,-2.653294 -0.66435,-0.729263 -1.22185,-1.645047 -1.43744,-2.619407 z m 15.36784,56.2133 c -0.30042,-0.951598 -0.27724,-2.023008 -0.0665,-2.986678 0.16751,-1.059404 0.61684,-2.25335 0.59692,-3.40596 -0.0288,-1.660372 -0.61209,-3.178411 -1.02819,-4.875223 -0.45235,-1.649521 -0.98519,-3.772199 -1.72826,-4.845149 -0.74282,-1.07288 -1.27817,-1.331724 -1.31222,-2.288707 -0.0285,-0.800255 0.45597,-1.467063 1.25317,-1.680672 l 0.26125,-0.07 c 0.80333,-0.215252 1.5485,0.122078 1.9239,0.829378 0.44901,0.845797 0.11489,1.337613 0.008,2.63819 -0.1064,1.300563 0.4931,3.405382 0.92587,5.060148 0.48811,1.677519 0.7419,3.283836 1.54716,4.736167 0.55901,1.00816 1.54513,1.81748 2.21994,2.651184 1.06293,1.166675 1.85126,2.810865 1.40453,4.408528 -0.23065,1.052032 -1.16725,1.783777 -2.19116,1.990528 -0.99011,0.332904 -2.16711,0.167497 -2.89286,-0.62827 -0.44463,-0.435077 -0.74112,-0.962511 -0.92141,-1.533474 z m 2.79332,-15.865963 c -0.21902,-0.844447 -0.36307,-1.460485 -0.35383,-1.511774 0.0104,-0.06666 0.0179,-0.06659 0.87655,0.116439 2.03375,0.433622 3.64973,1.009954 4.70558,1.677734 1.05872,0.66965 1.73392,1.605464 1.89854,2.633103 0.0977,0.610205 0.0213,1.065453 -0.26915,1.610881 -0.16914,0.317587 -0.61309,0.827226 -0.90512,1.040339 -0.57811,0.422007 -1.14032,0.550908 -1.81255,0.412478 -0.56734,-0.116813 -1.2491,-0.478057 -1.70781,-0.903782 -0.39306,-0.364891 -0.82692,-0.968985 -1.18088,-1.641416 -0.38569,-0.732504 -0.95977,-2.307665 -1.25131,-3.433966 z m -7.45448,-27.820509 c -0.31079,-1.121257 -0.60109,-2.772352 -0.63333,-3.599616 -0.0297,-0.759296 0.0445,-1.497599 0.20242,-2.010247 0.18438,-0.597937 0.59416,-1.251837 1.02712,-1.636532 0.5129,-0.456296 1.06386,-0.627056 1.77545,-0.550995 0.35946,0.03862 0.99919,0.259636 1.30446,0.450087 0.52424,0.327194 0.81802,0.683293 1.03857,1.260572 0.37122,0.972239 0.25393,2.118523 -0.32812,3.227838 -0.58049,1.106237 -1.69178,2.413432 -3.23629,3.805699 -0.65222,0.587682 -0.65844,0.591864 -0.7009,0.539147 -0.0338,-0.03992 -0.21711,-0.645295 -0.44945,-1.486131 z"
       style="font-style:normal;font-variant:normal;font-weight:bold;font-stretch:normal;font-size:50.8px;line-height:1.25;font-family:Georgia;-inkscape-font-specification:'Georgia Bold';stroke-width:0.904917"
       id="path72243" />
    <path
       d="m 286.76193,64.760816 c -9.39814,-9.398148 -19.55611,-15.037009 -30.47394,-16.916625 -10.87785,-1.83965 -19.65613,0.57983 -26.33481,7.25849 -4.87904,4.879057 -7.83844,10.75789 -8.87821,17.636515 -0.9998,6.918601 0.08,14.557049 3.23939,22.915371 -8.87825,-5.51891 -16.67672,-8.278355 -23.39541,-8.278345 -6.63868,1e-5 -12.53754,2.579485 -17.6965,7.738428 -6.67868,6.67865 -9.03823,15.27691 -7.07862,25.79486 1.95963,10.51793 7.99846,20.83595 18.11645,30.95392 11.31777,11.31777 22.75548,17.75646 34.3132,19.31614 11.59769,1.5997 21.07588,-1.27968 28.43442,-8.63824 5.19898,-5.19897 8.0784,-11.51776 8.63826,-18.95628 0.63991,-7.43852 -1.49971,-16.3768 -6.41876,-26.81472 7.95842,4.27915 15.01704,6.41872 21.17582,6.41873 6.19877,-0.04 11.57775,-2.33949 16.13685,-6.89859 5.91879,-5.9188 8.03838,-13.71728 6.35873,-23.395318 -1.63965,-9.637996 -7.01863,-19.016126 -16.13683,-28.134325 z m -6.29876,4.13917 c 3.67928,3.67928 5.09906,7.978471 4.25921,12.897469 -0.75985,4.918973 -3.45933,9.697976 -8.09838,14.337009 -3.43934,3.439299 -6.85864,6.378726 -10.258,8.818206 -3.31931,2.43955 -6.41874,4.21918 -9.29815,5.33895 -1.19976,-3.59927 -2.59946,-7.67845 -4.19915,-12.237538 -1.55967,-4.519103 -2.5595,-8.238352 -2.99944,-11.157757 -0.51984,-3.159342 -0.39989,-6.118774 0.35994,-8.878169 0.7998,-2.799461 2.51951,-5.518882 5.15897,-8.158358 3.79924,-3.799234 8.05835,-5.778895 12.77743,-5.938835 4.71908,-0.159969 8.81826,1.499711 12.29757,4.979023 z m -34.77681,16.360428 c 0.17231,0.19728 0.30661,0.42696 0.4249,0.712367 0.3987,0.961344 0.31663,2.110298 -0.23368,3.235592 -0.54897,1.122224 -1.62381,2.459875 -3.12817,3.895439 -0.63463,0.606354 -0.63893,0.610654 -0.68481,0.559944 -0.0347,-0.039 -0.23565,-0.640964 -0.49242,-1.474721 -0.34238,-1.112024 -0.68027,-2.752055 -0.73609,-3.578009 -0.0512,-0.758107 0.004,-1.500151 0.1475,-2.017068 0.16682,-0.603267 0.5583,-1.267384 0.9798,-1.664671 0.49925,-0.470967 1.04483,-0.657337 1.75839,-0.601127 0.36054,0.0284 1.00684,0.23065 1.31728,0.412487 0.26665,0.15624 0.47522,0.32253 0.64735,0.519927 z M 235.5396,76.675887 c 1.21813,1.126209 1.40807,2.9408 1.11476,4.491581 -0.13739,1.063784 -0.55252,2.270298 -0.4999,3.421812 0.0759,1.658958 0.70321,3.159632 1.16727,4.84402 0.49894,1.636111 1.0916,3.742639 1.86464,4.794023 0.77321,1.051294 1.31535,1.294544 1.37726,2.249548 0.0512,0.799157 -0.40784,1.479191 -1.20478,1.717131 l -0.25994,0.0775 c -0.79082,0.236137 -1.55301,-0.0797 -1.94839,-0.776107 -0.47282,-0.832654 -0.15244,-1.333801 -0.0825,-2.636965 0.07,-1.303131 -0.58866,-3.388519 -1.06851,-5.0302 -0.53549,-1.662991 -0.83472,-3.261372 -1.68089,-4.690273 -0.58751,-0.991827 -1.59518,-1.774021 -2.29333,-2.588278 -1.09654,-1.135131 -1.93099,-2.756982 -1.5297,-4.366613 0.2007,-1.058137 1.1157,-1.817639 2.13314,-2.053524 0.9802,-0.360954 2.16265,-0.228716 2.91067,0.546138 z m 12.91992,28.669173 c -1.98166,2.41396 -3.6536,4.90704 -4.8615,7.51855 -2.50019,-1.53782 -5.1876,-2.80595 -8.1871,-3.62301 1.42215,-2.12977 2.97889,-3.84773 4.86149,-7.51856 3.87077,2.3615 5.8834,2.84523 8.18711,3.62302 z M 231.69035,89.7682 c 0.31445,0.346557 0.63893,0.801944 0.9186,1.298541 0.40628,0.721177 1.02388,2.279168 1.34723,3.396812 0.24239,0.837954 0.40498,1.450791 0.39742,1.502181 -0.01,0.0676 -0.0178,0.0673 -0.88109,-0.0912 -2.04521,-0.375687 -3.67587,-0.905844 -4.75034,-1.543481 -1.07741,-0.639127 -1.77704,-1.555741 -1.97084,-2.578205 -0.11504,-0.607127 -0.0522,-1.063754 0.22245,-1.617171 0.16005,-0.322197 0.58877,-0.846184 0.87488,-1.067234 0.5659,-0.438187 1.12378,-0.581657 1.79963,-0.462417 0.57037,0.10075 1.2616,0.442367 1.73217,0.854834 0.10088,0.0881 0.20508,0.1923 0.31009,0.30726 z m 24.09275,30.6814 c 0.66056,0.57515 1.08945,1.28281 1.23476,2.0496 0.1151,0.60721 0.0535,1.06501 -0.22121,1.61841 -0.16005,0.3222 -0.58995,0.84504 -0.87609,1.06606 -0.56588,0.43818 -1.12375,0.58165 -1.79968,0.46236 -0.5703,-0.10063 -1.26152,-0.44236 -1.73209,-0.85478 -0.40336,-0.35359 -0.85568,-0.94392 -1.2285,-1.60595 -0.40629,-0.72118 -1.02388,-2.27917 -1.34725,-3.39684 -0.24248,-0.83799 -0.40372,-1.44953 -0.39616,-1.50093 0.01,-0.0675 0.0167,-0.0661 0.87979,0.0924 2.04522,0.37563 3.6772,0.90476 4.75159,1.54222 0.26911,0.16 0.51466,0.3357 0.73484,0.52738 z m -9.31815,-4.48409 c 0.13886,0.12375 0.25966,0.27478 0.35868,0.44861 0.47285,0.83281 0.15257,1.33394 0.0825,2.63699 -0.07,1.30313 0.58993,3.38979 1.0698,5.0315 0.53552,1.66304 0.83349,3.26021 1.67969,4.68911 0.58755,0.99186 1.59514,1.77397 2.29326,2.5882 1.09549,1.13608 1.93224,2.75828 1.53099,4.36791 -0.20063,1.05824 -1.11695,1.81642 -2.13457,2.05213 -0.98031,0.36085 -2.16246,0.22859 -2.90939,-0.54737 -1.21822,-1.12601 -1.40936,-2.9396 -1.11607,-4.49038 0.13736,-1.06379 0.55252,-2.27028 0.49991,-3.42183 -0.0759,-1.65896 -0.70201,-3.15845 -1.16603,-4.8428 -0.49887,-1.63608 -1.09143,-3.74275 -1.86461,-4.79403 -0.77308,-1.05145 -1.31612,-1.29391 -1.37721,-2.24954 -0.0511,-0.79903 0.41393,-1.48106 1.20475,-1.71718 l 0.25877,-0.0787 c 0.59791,-0.17837 1.17295,-0.0443 1.58968,0.32749 z m -20.05104,-13.89227 c 1.5597,4.67908 3.29936,9.49811 5.21897,14.45715 1.95961,4.999 3.33937,9.33821 4.13921,13.01745 0.75985,3.71927 0.81984,7.09862 0.17995,10.138 -0.63988,3.0394 -2.35953,5.95881 -5.159,8.75826 -4.35913,4.35913 -9.21817,6.57868 -14.57714,6.65866 -5.3589,0.08 -10.35795,-2.19954 -14.99705,-6.83864 -4.63905,-4.63905 -6.71866,-10.03803 -6.23877,-16.19683 0.47991,-6.15881 3.65933,-12.17754 9.53817,-18.05638 3.47932,-3.47932 7.27852,-6.27884 11.39769,-8.39839 4.11922,-2.11958 7.6185,-3.29936 10.49795,-3.53929 z m 15.29199,18.51636 c 0.0346,0.0389 0.23441,0.63977 0.49112,1.47342 0.34238,1.11201 0.68028,2.75209 0.73609,3.57801 0.0513,0.75819 -0.003,1.50154 -0.14618,2.01841 -0.16682,0.60325 -0.55961,1.26608 -0.98113,1.66336 -0.49933,0.4709 -1.04483,0.65734 -1.7584,0.60115 -0.36024,-0.0282 -1.00682,-0.23065 -1.31716,-0.41236 -0.53312,-0.31242 -0.83569,-0.65895 -1.07241,-1.22981 -0.39855,-0.96127 -0.31534,-2.11154 0.23494,-3.23686 0.54897,-1.12225 1.6239,-2.45979 3.12817,-3.89547 0.6347,-0.60626 0.639,-0.61058 0.68509,-0.55964 z"
       style="font-style:normal;font-variant:normal;font-weight:bold;font-stretch:normal;font-size:50.8px;line-height:1.25;font-family:Georgia;-inkscape-font-specification:'Georgia Bold';stroke-width:0.904917"
       id="path72245" />
    <path
       d="m 144.17271,157.0809 c -13.74343,-1e-5 -25.19635,3.93074 -34.35863,11.79221 -9.16228,7.8049 -13.743459,17.67417 -13.743459,29.60778 0,5.59919 0.87668,10.80245 2.62996,15.60984 1.809879,4.7508 4.298359,8.82295 7.465579,12.21639 3.11069,3.33688 6.7869,5.96679 11.02874,7.88974 4.24177,1.92295 8.79459,2.88443 13.65853,2.88443 5.82538,0 11.05702,-0.67867 15.69474,-2.03606 4.69418,-1.41392 9.52984,-4.29837 14.50687,-8.65328 -0.79169,5.03358 -1.9795,9.9258 -3.5631,14.67663 -1.58358,4.75082 -3.9024,9.24714 -6.95655,13.48893 -2.9409,4.1287 -6.70203,7.74837 -11.28319,10.85903 -4.58115,3.11065 -10.35,5.65573 -17.3065,7.63524 l -8.99264,1.52705 1.95121,8.39877 c 24.09342,-3.1672 43.09671,-11.31147 57.00982,-24.43279 13.9132,-13.06474 20.86965,-29.89056 20.86965,-50.47745 0,-15.55327 -4.38314,-27.93935 -13.14953,-37.15818 -8.76641,-9.21885 -20.58691,-13.82829 -35.4615,-13.82828 z m 0.25434,7.46557 c 5.20325,0 9.41684,3.61967 12.64063,10.85901 3.28031,7.18278 4.92049,17.56105 4.92049,31.13483 -1e-5,1.07459 -0.0267,2.17747 -0.0847,3.30861 -0.0563,1.13116 -0.085,2.09264 -0.085,2.88442 0,1.13117 -0.0267,2.06434 -0.085,2.79961 -0.0563,0.67866 -0.0847,1.1594 -0.0847,1.44219 -2.37538,3.56311 -4.9488,5.99509 -7.72009,7.29591 -2.7713,1.30082 -5.7971,1.95123 -9.0774,1.95123 -5.2033,0 -9.41687,-2.68647 -12.64069,-8.05943 -3.16719,-5.37292 -4.7508,-12.58401 -4.7508,-21.63319 0,-10.35 1.55543,-18.26801 4.66606,-23.7541 3.16722,-5.48605 7.26757,-8.22909 12.30118,-8.22909 z m 31.07297,13.01526 c 0.13067,-0.008 0.26036,-0.008 0.39069,0 l 0.004,-7e-5 c 1.04256,-0.0653 2.13661,0.3991 2.63166,1.35562 0.84511,1.42755 0.50743,3.21972 -0.21764,4.6218 -0.43605,0.97995 -1.17908,2.01691 -1.45806,3.1354 -0.40201,1.61131 -0.23001,3.22853 -0.26734,4.97528 0.01,1.71039 -0.0233,3.89861 0.41532,5.12728 0.43996,1.22862 0.89003,1.61716 0.6751,2.5504 -0.17968,0.78038 -0.81377,1.29906 -1.6454,1.29906 l -0.27067,-5e-5 c -0.82529,1e-5 -1.46589,-0.51868 -1.64544,-1.29906 -0.21464,-0.9332 0.23533,-1.32176 0.67521,-2.55038 0.43985,-1.22866 0.40538,-3.41689 0.41532,-5.12728 -0.0373,-1.74674 0.13467,-3.36397 -0.26733,-4.97528 -0.27899,-1.11849 -1.02204,-2.15546 -1.45813,-3.13539 -0.72474,-1.40209 -1.06237,-3.19427 -0.21734,-4.62181 0.43319,-0.83695 1.3264,-1.29728 2.241,-1.35563 z m -55.05681,5.58329 c 0.14233,-0.007 0.28169,-5.2e-4 0.41717,0.0157 0.45198,0.0547 0.87223,0.23621 1.29897,0.55675 0.34502,0.25892 0.86584,0.87513 1.06223,1.25662 0.33725,0.65536 0.42014,1.20016 0.29366,1.92649 -0.21299,1.22315 -1.03098,2.32912 -2.30474,3.11066 -1.27038,0.77952 -3.20675,1.43881 -5.63985,1.92295 -0.11236,0.0239 -0.109,0.0209 -0.19801,0.0371 -6.41751,7.15834 -6.23727,14.65363 0.4949,22.38436 l -1.66127,-0.12197 c -6.75496,-8.50243 -5.79538,-15.99472 0.60081,-23.36349 0.0543,-0.20624 0.094,-0.36414 0.16068,-0.60799 0.36604,-1.33896 1.07636,-3.20807 1.54825,-4.07567 0.43307,-0.79638 0.9619,-1.50998 1.43691,-1.93885 0.55405,-0.50031 1.37331,-0.91791 2.05197,-1.04809 0.15098,-0.0287 0.29635,-0.0482 0.43828,-0.0548 z m 48.11446,5.26865 c 0.304,0.0117 0.59986,0.0953 0.90667,0.24921 0.51776,0.25956 1.0845,0.7851 1.41748,1.31496 0.28534,0.45423 0.54793,1.14826 0.71575,1.88936 0.183,0.80736 0.32967,2.47743 0.31966,3.64088 -0.007,0.87231 -0.0267,1.50471 -0.0497,1.5518 -0.0267,0.0616 -0.035,0.0598 -0.81655,-0.33935 -1.85222,-0.9451 -3.26396,-1.92017 -4.11105,-2.83847 -0.84926,-0.92077 -1.25923,-1.99766 -1.15235,-3.0329 0.0637,-0.6147 0.25569,-1.0347 0.67697,-1.48639 0.24567,-0.26302 0.80622,-0.64213 1.14346,-0.77241 0.33386,-0.1289 0.64507,-0.18858 0.94918,-0.17668 z m 14.66772,1e-5 c 0.30401,-0.012 0.61537,0.0478 0.9492,0.17673 0.33729,0.13023 0.89792,0.50935 1.14342,0.77237 0.42179,0.4517 0.61341,0.87166 0.67699,1.48639 0.10703,1.03522 -0.30297,2.11212 -1.15244,3.03289 -0.84701,0.91831 -2.25872,1.89338 -4.11089,2.83848 -0.78184,0.39909 -0.78919,0.40091 -0.81663,0.33935 -0.0199,-0.0471 -0.0427,-0.67949 -0.0497,-1.5518 -0.0101,-1.16346 0.13731,-2.83351 0.31999,-3.64088 0.16801,-0.7411 0.43058,-1.43513 0.71583,-1.88936 0.333,-0.52986 0.89963,-1.05537 1.41742,-1.31497 0.30699,-0.1539 0.60269,-0.23738 0.90665,-0.24915 z m -79.2527,6.77982 c 0.36291,-0.01 0.72206,0.0654 1.09932,0.22445 0.63669,0.26847 1.35257,0.84997 1.79035,1.45459 0.37534,0.51833 0.7424,1.32431 1.00042,2.19338 0.28101,0.94675 0.58682,2.92316 0.66626,4.30894 0.0597,1.03898 0.086,1.79442 0.0637,1.85226 -0.0267,0.0759 -0.038,0.0724 -1.00031,-0.34113 -2.27915,-0.9797 -4.03451,-2.02916 -5.11495,-3.05587 -1.08326,-1.02943 -1.65616,-2.27995 -1.6101,-3.52069 0.0267,-0.73674 0.22299,-1.25142 0.68927,-1.82221 0.27164,-0.3321 0.90958,-0.82768 1.30079,-1.00919 0.38731,-0.17977 0.75247,-0.27472 1.11532,-0.28457 z m 14.0103,1.02863 c 0.55827,-0.0317 1.07254,0.12111 1.60831,0.47189 0.36086,0.2362 0.91941,0.81787 1.14004,1.18595 0.37867,0.63227 0.49824,1.17056 0.41883,1.90352 -0.13401,1.23434 -0.88066,2.39011 -2.10147,3.25204 -1.21759,0.85962 -3.10867,1.64373 -5.50553,2.28351 -1.01098,0.26986 -1.02044,0.27239 -1.03739,0.19266 -0.0131,-0.0606 0.121,-0.8045 0.33031,-1.82397 0.27901,-1.35972 0.86641,-3.27139 1.28141,-4.16758 0.38097,-0.82261 0.86146,-1.56685 1.30786,-2.02545 0.5207,-0.53495 1.31236,-1.00689 1.98133,-1.18064 0.1981,-0.051 0.39,-0.0813 0.57612,-0.0919 z m 57.90942,8.04705 c 3.0334,3.37026 4.82331,4.41043 6.80817,5.81481 -2.58975,1.74575 -4.90364,3.65626 -6.80816,5.81303 -1.95568,-2.18886 -4.16777,-4.17187 -6.80807,-5.81302 1.97212,-1.6338 3.95396,-2.83614 6.80806,-5.81482 z m 0.159,14.65367 0.27068,4e-5 c 0.83169,0 1.46411,0.51868 1.64367,1.29906 0.21464,0.9332 -0.23532,1.32175 -0.67517,2.55037 -0.43927,1.22867 -0.40507,3.41689 -0.41529,5.12729 0.0373,1.74674 -0.13334,3.3622 0.26866,4.97351 0.279,1.1185 1.02214,2.15722 1.4582,3.13718 0.72473,1.40206 1.06066,3.19424 0.21568,4.62178 -0.49503,0.95652 -1.58919,1.42094 -2.63175,1.35561 -1.04246,0.0653 -2.13656,-0.39909 -2.63164,-1.35561 -0.84499,-1.42757 -0.50732,-3.21973 0.21766,-4.62179 0.43604,-0.97995 1.17721,-2.01868 1.45632,-3.13718 0.40188,-1.6113 0.23167,-3.22676 0.269,-4.9735 -0.01,-1.7104 0.0233,-3.89862 -0.41531,-5.12729 -0.43982,-1.22862 -0.8899,-1.61718 -0.67509,-2.55039 0.17964,-0.78038 0.82017,-1.29904 1.64544,-1.29906 z m -4.21344,3.80701 c 0.0166,0.002 0.0233,0.013 0.0299,0.0283 0.0199,0.0471 0.0427,0.67948 0.0497,1.55179 0.0101,1.16347 -0.137,2.83352 -0.31999,3.64087 -0.168,0.74113 -0.43058,1.43693 -0.7158,1.89114 -0.333,0.52987 -0.89966,1.05537 -1.41742,1.31497 -0.61356,0.30782 -1.18819,0.32872 -1.85584,0.0707 -0.33731,-0.13019 -0.898,-0.50758 -1.14345,-0.77059 -0.42141,-0.45169 -0.61339,-0.87341 -0.67697,-1.48816 -0.10668,-1.03519 0.303,-2.11212 1.15232,-3.03289 0.84709,-0.91832 2.25882,-1.89335 4.11107,-2.83847 0.58625,-0.29911 0.73601,-0.37414 0.78653,-0.36762 z m 8.10705,1e-5 c 0.0506,-0.007 0.19999,0.0686 0.78657,0.36762 1.85217,0.94512 3.2639,1.92016 4.11088,2.83847 0.84937,0.92077 1.2594,1.99772 1.15248,3.03288 -0.0637,0.61474 -0.25532,1.03647 -0.67699,1.48817 -0.24566,0.263 -0.80632,0.64039 -1.14344,0.77055 -0.66768,0.2579 -1.24234,0.23713 -1.85582,-0.0707 -0.51781,-0.25957 -1.08465,-0.78511 -1.41745,-1.31498 -0.28533,-0.45421 -0.54795,-1.15002 -0.71583,-1.89112 -0.183,-0.80738 -0.32967,-2.4774 -0.32001,-3.64089 0.007,-0.8723 0.0267,-1.50465 0.0497,-1.55178 0.007,-0.0155 0.0132,-0.026 0.0297,-0.0287 z"
       style="font-style:normal;font-variant:normal;font-weight:bold;font-stretch:normal;font-size:50.8px;line-height:1.25;font-family:Georgia;-inkscape-font-specification:'Georgia Bold';stroke-width:0.904917"
       id="path72247" />
    <path
       d="m 248.65997,178.19597 c -8.59682,0 -16.20369,1.35738 -22.82095,4.07213 -6.61717,2.65819 -12.075,6.22131 -16.37337,10.68934 -4.41147,4.58115 -7.69181,9.69958 -9.84099,15.35533 -2.09264,5.65573 -3.13888,11.7922 -3.13888,18.40942 0,6.67376 1.10281,12.92336 3.30853,18.74877 2.26235,5.82542 5.54263,10.8873 9.84102,15.18565 4.35491,4.35493 9.7844,7.86148 16.28854,10.51967 6.56061,2.65819 14.11108,3.9873 22.65119,3.9873 8.08771,0 15.24231,-1.13118 21.46351,-3.39344 6.22141,-2.2623 11.6791,-5.54263 16.37339,-9.84099 4.4681,-4.12869 7.9746,-9.16231 10.5197,-15.10082 2.6016,-5.99509 3.9024,-12.69713 3.9024,-20.10614 0,-6.22132 -1.04619,-12.21639 -3.13889,-17.98524 -2.0361,-5.82541 -5.20329,-11.00042 -9.50171,-15.525 -4.2418,-4.46803 -9.67129,-8.08771 -16.2885,-10.85902 -6.6172,-2.7713 -14.36549,-4.15696 -23.24499,-4.15696 z m 0.085,7.46557 c 3.78928,0 6.98468,1.04632 9.58638,3.13893 2.6016,2.09264 4.69421,5.06191 6.2778,8.90779 1.52712,3.73278 2.6017,8.00286 3.22381,12.81024 0.67879,4.80738 1.01799,10.2086 1.01799,16.20369 0,6.67376 -0.36759,12.35778 -1.10278,17.05204 -0.67871,4.6377 -1.83812,8.85121 -3.47832,12.64057 -1.52699,3.50656 -3.61969,6.27785 -6.2778,8.31396 -2.65829,2.03604 -5.7972,3.05408 -9.41678,3.05408 -3.9025,0 -7.18283,-1.13115 -9.84102,-3.39344 -2.65819,-2.26232 -4.69427,-5.23157 -6.10817,-8.90779 -1.58361,-4.07214 -2.68648,-8.31392 -3.30867,-12.72541 -0.56549,-4.41147 -0.84836,-9.75614 -0.84836,-16.03401 0,-5.99509 0.33933,-11.48116 1.01804,-16.4582 0.67879,-5.03361 1.75328,-9.27542 3.22373,-12.7254 1.64026,-3.78937 3.76113,-6.70205 6.36276,-8.73812 2.60159,-2.09261 5.82538,-3.13893 9.67139,-3.13893 z m -28.14974,25.41016 c 0.14235,-0.007 0.27967,-0.002 0.41537,0.014 0.45199,0.0547 0.87406,0.238 1.3008,0.55851 0.34486,0.25893 0.86577,0.87515 1.06222,1.25663 0.33727,0.65534 0.42008,1.20015 0.29367,1.92649 -0.21299,1.22315 -1.03278,2.32734 -2.30646,3.10888 -1.27042,0.7795 -3.20685,1.4406 -5.6398,1.92473 -0.11234,0.024 -0.10734,0.021 -0.19635,0.0371 -6.41771,7.15834 -6.23742,14.65185 0.4948,22.38258 l -1.66132,-0.12017 c -6.75495,-8.50243 -5.79536,-15.99471 0.60092,-23.36349 0.0543,-0.20623 0.094,-0.36413 0.16068,-0.60799 0.36603,-1.33896 1.07461,-3.20984 1.54649,-4.07743 0.43312,-0.79639 0.96192,-1.5082 1.43693,-1.93709 0.55409,-0.5003 1.37337,-0.91968 2.05195,-1.04985 0.15099,-0.029 0.298,-0.0465 0.4401,-0.053 z m 57.96243,0 c 0.1424,0.007 0.28739,0.0243 0.43839,0.053 0.6785,0.13017 1.49781,0.54955 2.052,1.04985 0.47491,0.42889 1.0037,1.14071 1.4368,1.93709 0.47191,0.86759 1.18052,2.73847 1.54651,4.07743 0.067,0.24387 0.10639,0.40176 0.16069,0.608 6.39622,7.36877 7.35761,14.86104 0.60272,23.36349 l -1.6614,0.12016 c 6.73219,-7.73073 6.91248,-15.22424 0.4948,-22.38258 -0.089,-0.0163 -0.086,-0.0133 -0.19802,-0.0371 -2.433,-0.48413 -4.36938,-1.14523 -5.6398,-1.92473 -1.27368,-0.78153 -2.09339,-1.88573 -2.30648,-3.10888 -0.12671,-0.72634 -0.042,-1.27114 0.2953,-1.92649 0.1964,-0.38148 0.71728,-0.99772 1.0622,-1.25663 0.42679,-0.32053 0.84698,-0.50378 1.2991,-0.5585 0.13528,-0.0163 0.27498,-0.0207 0.41709,-0.014 z m -74.4348,12.04849 c 0.36287,-0.01 0.72392,0.0654 1.10109,0.22447 0.6368,0.2685 1.35078,0.8482 1.78866,1.45281 0.37537,0.51833 0.74419,1.32608 1.00214,2.19514 0.28133,0.94677 0.58679,2.92138 0.66638,4.30719 0.0597,1.03898 0.084,1.79443 0.062,1.85226 -0.0267,0.0759 -0.0363,0.0724 -0.99859,-0.34113 -2.27912,-0.9797 -4.03622,-2.02739 -5.11667,-3.05409 -1.08331,-1.02944 -1.65439,-2.28174 -1.60835,-3.52246 0.0267,-0.73674 0.22135,-1.25142 0.68752,-1.82222 0.27165,-0.3321 0.90948,-0.82592 1.30077,-1.00742 v -0.002 c 0.38735,-0.17974 0.75245,-0.27297 1.11527,-0.28277 z m 90.90541,0 c 0.3629,0.01 0.72789,0.10304 1.1153,0.28277 v 0.002 c 0.39118,0.1815 1.0292,0.67533 1.30079,1.00743 0.46631,0.57079 0.66009,1.08547 0.6875,1.82221 0.046,1.24072 -0.5251,2.49303 -1.60841,3.52246 -1.08029,1.0267 -2.8358,2.0744 -5.11479,3.0541 -0.96239,0.4135 -0.97311,0.41704 -1.00049,0.34112 -0.023,-0.0578 0,-0.81327 0.064,-1.85226 0.08,-1.38581 0.38338,-3.36042 0.66458,-4.30719 0.25802,-0.86906 0.6268,-1.67681 1.00211,-2.19514 0.43791,-0.60461 1.15189,-1.18433 1.78869,-1.45281 0.37721,-0.15906 0.73821,-0.2343 1.10111,-0.22446 z m -76.89501,1.02687 c 0.55824,-0.0317 1.07249,0.12287 1.60827,0.47366 0.36092,0.2362 0.92115,0.81787 1.14181,1.18594 0.37872,0.63225 0.49649,1.17057 0.41712,1.90352 -0.13399,1.23435 -0.88064,2.38833 -2.10148,3.25027 -1.21756,0.85963 -3.10687,1.64373 -5.50376,2.28351 -1.01105,0.26983 -1.02214,0.27203 -1.03926,0.19266 -0.0132,-0.0605 0.12134,-0.80272 0.33068,-1.8222 0.27897,-1.35972 0.86807,-3.27139 1.28307,-4.16757 0.38097,-0.82262 0.86153,-1.56863 1.30791,-2.02723 0.52076,-0.53494 1.31236,-1.00513 1.98126,-1.17887 0.19801,-0.0514 0.3883,-0.0831 0.57446,-0.0937 z m 62.88469,0 c 0.186,0.0107 0.37801,0.0423 0.5762,0.0937 0.66882,0.17373 1.45871,0.64392 1.97951,1.17886 0.4463,0.45862 0.92861,1.20462 1.30961,2.02724 0.415,0.89618 1.00229,2.80785 1.28138,4.16757 0.20941,1.01948 0.3444,1.76174 0.33041,1.8222 -0.0169,0.0794 -0.027,0.0772 -1.03931,-0.19266 -2.39678,-0.63978 -4.2862,-1.42388 -5.50378,-2.28351 -1.22082,-0.86194 -1.9675,-2.01591 -2.1013,-3.25027 -0.079,-0.73295 0.038,-1.27127 0.41698,-1.90352 0.22072,-0.36807 0.7809,-0.94974 1.14181,-1.18594 0.53571,-0.35078 1.05,-0.50538 1.60841,-0.47366 z"
       style="font-style:normal;font-variant:normal;font-weight:bold;font-stretch:normal;font-size:50.8px;line-height:1.25;font-family:Georgia;-inkscape-font-specification:'Georgia Bold';stroke-width:0.904917"
       id="path72249" />
    <path
       id="path72138"
       style="font-style:normal;font-variant:normal;font-weight:bold;font-stretch:normal;font-size:50.8px;line-height:1.25;font-family:Georgia;-inkscape-font-specification:'Georgia Bold';stroke-width:1.05232"
       d="m 38.667978,8.7724055 c -0.904936,1.7591105 -2.149142,3.7861095 -3.732747,6.0805755 -1.527064,2.294508 -3.507351,4.512667 -5.939327,6.65418 -2.375371,2.06506 -5.372008,3.824707 -8.991669,5.277869 -3.563121,1.453155 -7.80562,2.179012 -12.7261352,2.179012 H 2.6134565 V 39.862566 H 24.076323 v 72.736054 c 0,3.21221 -0.48029,5.73496 -1.441764,7.57057 -0.96148,1.83556 -2.290975,3.13671 -3.987686,3.90155 -1.357359,0.61182 -3.903263,1.22438 -7.636027,1.83624 -3.6762272,0.61189 -6.3613055,0.99426 -8.0580485,1.14721 v 8.71778 H 72.941394 v -8.71778 c -1.640174,-0.15307 -4.184322,-0.61319 -7.634306,-1.37803 -3.450021,-0.76481 -5.910591,-1.60573 -7.381092,-2.52353 -1.640134,-1.07075 -2.912211,-2.60029 -3.817154,-4.58885 -0.848371,-2.06506 -1.272956,-4.47446 -1.272956,-7.22779 V 44.108631 c 0,-5.277332 0.08533,-11.243219 0.254931,-17.897209 0.169635,-6.654034 0.338411,-12.467638 0.508154,-17.4390165 z m -1.00252,31.2176285 c 0.130932,-0.0083 0.262131,-0.0083 0.392743,0 1.044762,-0.06547 2.142836,0.400513 2.638933,1.359085 0.846764,1.430576 0.509256,3.22684 -0.217033,4.631915 -0.436999,0.982067 -1.180714,2.022713 -1.460714,3.143639 -0.402998,1.614736 -0.232765,3.234561 -0.270433,4.985036 0.01,1.714074 -0.024,3.905348 0.416856,5.136618 0.440597,1.231276 0.892294,1.621023 0.676958,2.556253 -0.180034,0.782027 -0.821376,1.302243 -1.648471,1.302243 h -0.272166 c -0.83353,0 -1.468139,-0.520216 -1.648471,-1.302243 -0.215268,-0.93523 0.236098,-1.324977 0.676958,-2.556253 0.439697,-1.23127 0.406855,-3.422544 0.416853,-5.136618 -0.03767,-1.750475 0.134102,-3.3703 -0.268697,-4.985036 -0.279667,-1.120926 -1.023684,-2.161572 -1.460715,-3.143639 -0.726395,-1.405075 -1.063905,-3.201339 -0.217066,-4.631915 0.434115,-0.83875 1.327859,-1.30066 2.244473,-1.359085 z M 31.00439,50.595725 c 0.3047,0.01201 0.602086,0.0956 0.9095,0.249766 0.518898,0.260266 1.085776,0.786736 1.419376,1.317742 0.285999,0.455192 0.550101,1.152099 0.718302,1.894798 0.183665,0.809103 0.330398,2.48064 0.320399,3.646619 -0.0067,0.874181 -0.02667,1.509956 -0.04997,1.557179 -0.03,0.0619 -0.0348,0.0587 -0.818208,-0.341064 -1.856195,-0.947129 -3.271422,-1.923621 -4.120319,-2.843911 -0.851133,-0.922729 -1.261237,-2.002866 -1.154104,-3.040287 0.06333,-0.616037 0.256032,-1.037347 0.678682,-1.489999 0.245666,-0.263532 0.807493,-0.642911 1.145493,-0.773422 0.334547,-0.129264 0.646149,-0.189264 0.950841,-0.177432 z m 14.700174,0 c 0.304699,-0.01199 0.616309,0.04817 0.950841,0.177432 0.337965,0.1305 0.899821,0.509889 1.145492,0.773422 0.422331,0.452652 0.615013,0.873958 0.67868,1.489998 0.107133,1.037418 -0.302998,2.117559 -1.154102,3.040285 -0.848897,0.920292 -2.264095,1.896785 -4.120322,2.843916 -0.783394,0.399759 -0.788207,0.402964 -0.818208,0.341064 -0.02334,-0.04723 -0.0433,-0.682998 -0.04997,-1.557178 -0.01,-1.16598 0.137065,-2.837516 0.320397,-3.64662 0.168167,-0.742699 0.4323,-1.439606 0.718299,-1.894798 0.333632,-0.531005 0.900544,-1.057476 1.419373,-1.317741 0.307433,-0.1542 0.604809,-0.237935 0.909505,-0.249767 z m -7.350088,15.540773 c 1.959927,2.193576 4.176932,4.182681 6.822987,5.827358 -1.976326,1.637313 -3.962696,2.840529 -6.822987,5.825635 -3.03979,-3.377491 -4.833964,-4.418219 -6.822991,-5.825635 2.595158,-1.749499 4.914363,-3.665937 6.822991,-5.827358 z m -0.136068,15.303058 h 0.270434 c 0.827098,0 1.468472,0.521941 1.64847,1.30397 0.215334,0.935225 -0.236331,1.323255 -0.676957,2.554523 -0.440865,1.23127 -0.406922,3.42428 -0.416854,5.13834 0.03733,1.750486 -0.132567,3.370305 0.270431,4.985044 0.28,1.120921 1.023749,2.161587 1.460714,3.143637 0.7263,1.40509 1.063839,3.20131 0.217035,4.63192 -0.4962,0.95857 -1.594138,1.42454 -2.638936,1.35908 -1.044696,0.0655 -2.141079,-0.40051 -2.63721,-1.35908 -0.846797,-1.43061 -0.509291,-3.22683 0.217032,-4.63192 0.436899,-0.98205 1.181119,-2.022716 1.460714,-3.143637 0.402903,-1.614739 0.2314,-3.234558 0.268735,-4.985044 -0.01,-1.71406 0.02267,-3.90707 -0.416856,-5.13834 -0.440899,-1.231268 -0.890471,-1.619298 -0.675238,-2.554523 0.180332,-0.782029 0.815009,-1.30397 1.648473,-1.30397 z M 34.291,84.984547 c 0.01699,0.0019 0.02334,0.014 0.031,0.02933 0.02334,0.0472 0.0433,0.681263 0.04997,1.555451 0.0097,1.165964 -0.136734,2.839244 -0.3204,3.648348 -0.168166,0.742691 -0.432303,1.439603 -0.718301,1.894798 -0.333664,0.530997 -0.90051,1.057473 -1.419376,1.317741 -0.614796,0.308398 -1.192903,0.330832 -1.862066,0.07233 -0.337966,-0.130532 -0.899824,-0.509894 -1.14549,-0.773427 -0.422632,-0.452644 -0.613627,-0.873951 -0.67696,-1.489993 -0.107133,-1.037421 0.302932,-2.117535 1.154102,-3.040285 0.848868,-0.920269 2.262372,-1.896779 4.118599,-2.843916 0.587523,-0.299831 0.737955,-0.376878 0.788924,-0.370354 z m 8.125229,0 c 0.05097,-0.0063 0.201465,0.07057 0.788924,0.370353 1.856227,0.947134 3.269734,1.923648 4.118597,2.843916 0.851133,0.92275 1.261205,2.002864 1.154105,3.040285 -0.06333,0.616042 -0.254334,1.037344 -0.676958,1.489993 -0.245666,0.263533 -0.807561,0.642908 -1.145492,0.773427 h -0.0019 c -0.669166,0.258501 -1.245548,0.236067 -1.860344,-0.07233 -0.518866,-0.260265 -1.085779,-0.786744 -1.419376,-1.317741 -0.285999,-0.4552 -0.550135,-1.152113 -0.718301,-1.894803 -0.183333,-0.809099 -0.330399,-2.482379 -0.320397,-3.648342 0.0067,-0.874192 0.02667,-1.508247 0.04997,-1.555454 0.0073,-0.01532 0.014,-0.027 0.031,-0.02933 z" />
  </g>
</svg>
